<svg height="512pt" viewBox="0 -48 512 512" width="512pt" xmlns="http://www.w3.org/2000/svg"><path d="m0 279h512v128h-512zm0 0" fill="#b8ecff"/><path d="m0 279h512v24h-512zm0 0" fill="#57bfe6"/><path d="m368 223c0 20.398438-5.460938 39.53125-14.988281 56h-194.023438c-9.527343-16.46875-14.988281-35.601562-14.988281-56 0-61.859375 50.140625-112 112-112s112 50.140625 112 112zm0 0" fill="#feef7f"/><path d="m363.351562 255c-2.511718 8.460938-6 16.5-10.339843 24h-194.023438c-4.339843-7.5-7.828125-15.539062-10.339843-24zm0 0" fill="#ea9a10"/><path d="m216 335.5h16v15h-16zm0 0" fill="#fff"/><path d="m248 335.5h16v15h-16zm0 0" fill="#fff"/><path d="m280 335.5h16v15h-16zm0 0" fill="#fff"/><g fill="#ea9a10"><path d="m280 79h-48l22-72h4zm0 0"/><path d="m374.792969 138.148438-33.941407-33.941407 66.46875-35.355469 2.828126 2.828126zm0 0"/><path d="m400 247v-48l72 22v4zm0 0"/><path d="m112 199v48l-72-22v-4zm0 0"/><path d="m171.148438 104.207031-33.941407 33.941407-35.355469-66.46875 2.828126-2.828126zm0 0"/></g><path d="m184.5 223h15c0-31.152344 25.347656-56.5 56.5-56.5v-15c-39.425781 0-71.5 32.074219-71.5 71.5zm0 0"/><path d="m365.226562 272c6.742188-16 10.273438-31.984375 10.273438-48.75 0-65.894531-53.605469-119.625-119.5-119.625s-119.5 53.796875-119.5 119.6875c0 16.765625 3.53125 32.6875 10.273438 48.6875h-146.773438v15h512v-15zm-16.652343 0h-185.148438c-7.808593-15-11.925781-31.808594-11.925781-48.75 0-57.621094 46.878906-104.625 104.5-104.625s104.5 47.066406 104.5 104.6875c0 16.941406-4.117188 33.6875-11.925781 48.6875zm0 0"/><path d="m32 304h112v15h-112zm0 0"/><path d="m320 336h144v15h-144zm0 0"/><path d="m112 336h80v15h-80zm0 0"/><path d="m296 368h216v15h-216zm0 0"/><path d="m0 368h80v15h-80zm0 0"/><path d="m0 400h512v15h-512zm0 0"/><path d="m263.550781 0h-15.101562l-26.582031 87h68.265624zm-7.550781 26.621094 13.867188 45.378906h-27.734376zm0 0"/><path d="m419.378906 70.300781-10.679687-10.679687-80.316407 42.722656 48.273438 48.273438zm-66.058594 35.765625 41.894532-22.28125-22.28125 41.894532zm0 0"/><path d="m392 257.132812 87-26.582031v-15.101562l-87-26.582031zm15-48 45.378906 13.867188-45.378906 13.867188zm0 0"/><path d="m119 188.867188-87 26.582031v15.101562l87 26.582031zm-15 48-45.378906-13.867188 45.378906-13.867188zm0 0"/><path d="m183.617188 102.34375-80.316407-42.722656-10.679687 10.679687 42.722656 80.316407zm-24.9375 3.722656-19.609376 19.609375-22.285156-41.890625zm0 0"/></svg>